<svg width="8" height="14" viewBox="0 0 8 14" fill="none" xmlns="http://www.w3.org/2000/svg">
<path d="M1.24545 13.4167C1.36609 13.4174 1.48568 13.3943 1.59736 13.3487C1.70905 13.303 1.81063 13.2358 1.89628 13.1509L7.39628 7.65086C7.56701 7.47911 7.66284 7.24678 7.66284 7.00461C7.66284 6.76244 7.56701 6.53011 7.39628 6.35836L1.89628 0.858358C1.72092 0.708184 1.49535 0.629712 1.26465 0.638623C1.03395 0.647534 0.815102 0.743172 0.651849 0.906425C0.488595 1.06968 0.392957 1.28852 0.384046 1.51923C0.375134 1.74993 0.453608 1.9755 0.603782 2.15086L5.45295 7.00003L0.603782 11.8492C0.475062 11.9769 0.387088 12.1398 0.350985 12.3175C0.314882 12.4951 0.332271 12.6795 0.400953 12.8473C0.469635 13.0151 0.586524 13.1587 0.736843 13.2601C0.887161 13.3614 1.06416 13.4159 1.24545 13.4167Z" fill="#0C0D0D"/>
</svg>
