<svg width="16" height="16" viewBox="0 0 16 16" fill="none" xmlns="http://www.w3.org/2000/svg">
<path d="M7.99998 14.4333C7.79331 14.4333 7.59331 14.4066 7.42665 14.3467C4.87998 13.4733 0.833313 10.3733 0.833313 5.79332C0.833313 3.45998 2.71998 1.56665 5.03998 1.56665C6.16665 1.56665 7.21998 2.00665 7.99998 2.79332C8.77998 2.00665 9.83331 1.56665 10.96 1.56665C13.28 1.56665 15.1666 3.46665 15.1666 5.79332C15.1666 10.38 11.12 13.4733 8.57331 14.3467C8.40665 14.4066 8.20665 14.4333 7.99998 14.4333ZM5.03998 2.56665C3.27331 2.56665 1.83331 4.01332 1.83331 5.79332C1.83331 10.3466 6.21331 12.88 7.75331 13.4066C7.87331 13.4466 8.13331 13.4466 8.25331 13.4066C9.78665 12.88 14.1733 10.3533 14.1733 5.79332C14.1733 4.01332 12.7333 2.56665 10.9666 2.56665C9.95331 2.56665 9.01331 3.03998 8.40665 3.85998C8.21998 4.11332 7.79331 4.11332 7.60665 3.85998C6.98665 3.03332 6.05331 2.56665 5.03998 2.56665Z" fill="#292D32"/>
</svg>
